<?xml version="1.0" standalone="no"?><!DOCTYPE svg PUBLIC "-//W3C//DTD SVG 1.1//EN" "http://www.w3.org/Graphics/SVG/1.1/DTD/svg11.dtd"><svg class="icon" width="16px" height="16.00px" viewBox="0 0 1024 1024" version="1.1" xmlns="http://www.w3.org/2000/svg"><path d="M704 262.4c38.4 19.2 89.6 6.4 108.8-32 19.2-38.4 6.4-83.2-32-108.8-38.4-19.2-89.6-12.8-108.8 32-19.2 38.4-6.4 83.2 32 108.8z" fill="#CA0016" /><path d="M537.6 307.2c121.6 0 217.6 89.6 230.4 211.2h115.2c-6.4-83.2-44.8-166.4-102.4-224-32 12.8-64 6.4-96-6.4-32-25.6-44.8-51.2-51.2-83.2-32-6.4-64-12.8-96-12.8-51.2 0-102.4 12.8-153.6 32L441.6 320c32-6.4 64-12.8 96-12.8z" fill="#FE6309" /><path d="M697.6 812.8c-38.4 19.2-51.2 70.4-32 108.8 25.6 38.4 70.4 51.2 108.8 25.6 38.4-19.2 51.2-70.4 32-108.8-19.2-32-70.4-44.8-108.8-25.6z" fill="#FFB416" /><path d="M742.4 652.8c-57.6 102.4-192 147.2-300.8 96L384 844.8c76.8 38.4 160 44.8 243.2 25.6 6.4-32 25.6-64 57.6-76.8 32-19.2 64-19.2 96-6.4 19.2-19.2 38.4-44.8 57.6-76.8 25.6-44.8 44.8-96 44.8-147.2H768c0 25.6-12.8 57.6-25.6 89.6z" fill="#CA0016" /><path d="M140.8 448C96 448 64 486.4 64 531.2c0 44.8 32 83.2 76.8 83.2s76.8-32 83.2-76.8c0-51.2-38.4-83.2-83.2-89.6z" fill="#FE6309" /><path d="M339.2 652.8c-57.6-108.8-25.6-236.8 70.4-307.2l-57.6-96C281.6 294.4 230.4 364.8 211.2 448c25.6 19.2 38.4 51.2 38.4 89.6 0 32-19.2 64-44.8 83.2 6.4 32 19.2 57.6 32 89.6 25.6 44.8 64 89.6 102.4 115.2l57.6-96c-19.2-19.2-38.4-44.8-57.6-76.8z" fill="#FFB416" /></svg>